info, sample, subs
 
http://www.btarena.org/movies/dvdrip/repo-men-unrated-2010-dvdrip-xvid-larceny



Sample/l-repo.men.xvid-sample.avi
Format : AVI
Format/Info : Audio Video Interleave
File size : 14.0 MiB
Duration : 57s 558ms
Overall bit rate : 2 042 Kbps
Writing application : VirtualDubMod 1.5.10.2 (build 2540/release)
Writing library : VirtualDubMod build 2540/release

Video
ID : 0
Format : MPEG-4 Visual
Format profile : Advanced Simple@L5
Format settings, BVOP : Yes
Format settings, QPel : No
Format settings, GMC : No warppoints
Format settings, Matrix : Default (H.263)
Codec ID : XVID
Codec ID/Hint : XviD
Duration : 57s 558ms
Bit rate : 1 583 Kbps
Width : 640 pixels
Height : 272 pixels
Display aspect ratio : 2.35:1
Frame rate : 23.976 fps
Resolution : 8 bits
Colorimetry : 4:2:0
Scan type : Progressive
Bits/(Pixel*Frame) : 0.379
Stream size : 10.9 MiB (78%)
Writing library : XviD 1.2.1 (UTC 2008-12-04)

Audio
ID : 1
Format : AC-3
Format/Info : Audio Coding 3
Codec ID : 2000
Duration : 57s 558ms
Bit rate mode : Constant
Bit rate : 448 Kbps
Channel(s) : 6 channels
Channel positions : Front: L C R, Surround: L R, LFE
Sampling rate : 48.0 KHz
Video delay : 31ms
Stream size : 3.07 MiB (22%)
Alignment : Split accross interleaves
Interleave, duration : 42 ms (1.01 video frame)
Interleave, preload duration : 500 ms



Plot:
Set in the near future when artificial organs can be bought on credit, it revolves around a man who struggles to make the payments on a heart he has purchased. He must therefore go on the run before said ticker is repossessed.